<svg width="25" height="25" viewBox="0 0 25 25" fill="none" xmlns="http://www.w3.org/2000/svg">
<path d="M14.3662 19.7969V15.3124C14.3662 15.1141 14.2875 14.924 14.1473 14.7839C14.0071 14.6437 13.817 14.565 13.6188 14.565H10.6292C10.4309 14.565 10.2408 14.6437 10.1007 14.7839C9.96051 14.924 9.88177 15.1141 9.88177 15.3124V19.7969C9.88177 19.9951 9.80304 20.1852 9.66289 20.3254C9.52275 20.4655 9.33266 20.5443 9.13446 20.5443L4.65057 20.5449C4.55242 20.5449 4.45522 20.5256 4.36453 20.488C4.27384 20.4505 4.19143 20.3954 4.12202 20.326C4.05261 20.2566 3.99754 20.1742 3.95998 20.0835C3.92241 19.9928 3.90308 19.8956 3.90308 19.7975V11.1593C3.90308 11.0552 3.92483 10.9522 3.96696 10.857C4.00908 10.7617 4.07063 10.6764 4.14767 10.6063L11.6212 3.81103C11.7588 3.68594 11.938 3.61662 12.124 3.61662C12.3099 3.61661 12.4892 3.68591 12.6268 3.811L20.1013 10.6063C20.1784 10.6764 20.24 10.7617 20.2821 10.857C20.3242 10.9522 20.346 11.0552 20.346 11.1593V19.7975C20.346 19.8956 20.3266 19.9928 20.2891 20.0835C20.2515 20.1742 20.1965 20.2566 20.127 20.326C20.0576 20.3954 19.9752 20.4505 19.8845 20.488C19.7938 20.5256 19.6966 20.5449 19.5985 20.5449L15.1135 20.5443C14.9153 20.5443 14.7252 20.4655 14.5851 20.3254C14.4449 20.1852 14.3662 19.9951 14.3662 19.7969V19.7969Z" stroke="black" stroke-width="2.24221" stroke-linecap="round" stroke-linejoin="round"/>
</svg>
