<svg width="25" height="25" viewBox="0 0 25 25" fill="none" xmlns="http://www.w3.org/2000/svg">
<path d="M12.8755 13.0709C14.5266 13.0709 15.8651 11.7324 15.8651 10.0813C15.8651 8.43019 14.5266 7.09169 12.8755 7.09169C11.2244 7.09169 9.88586 8.43019 9.88586 10.0813C9.88586 11.7324 11.2244 13.0709 12.8755 13.0709Z" stroke="black" stroke-width="2.33564" stroke-linecap="round" stroke-linejoin="round"/>
<path d="M20.3496 10.0813C20.3496 16.808 12.8755 22.0398 12.8755 22.0398C12.8755 22.0398 5.40149 16.808 5.40149 10.0813C5.40149 8.09907 6.18893 6.19802 7.59059 4.79636C8.99224 3.39471 10.8933 2.60727 12.8755 2.60727C14.8578 2.60727 16.7588 3.39471 18.1605 4.79636C19.5621 6.19802 20.3496 8.09907 20.3496 10.0813V10.0813Z" stroke="black" stroke-width="2.33564" stroke-linecap="round" stroke-linejoin="round"/>
</svg>
